<svg width="36" height="35" viewBox="0 0 36 35" fill="none" xmlns="http://www.w3.org/2000/svg">
<path d="M22.8951 13.1074C21.5979 11.8102 19.8385 11.0814 18.0039 11.0814C16.1693 11.0814 14.4099 11.8102 13.1127 13.1074C11.8154 14.4047 11.0866 16.1641 11.0866 17.9987C11.0866 19.8332 11.8154 21.5927 13.1127 22.8899C14.4099 24.1871 16.1693 24.9159 18.0039 24.9159C19.8385 24.9159 21.5979 24.1871 22.8951 22.8899C24.1924 21.5927 24.9211 19.8332 24.9211 17.9987C24.9211 16.1641 24.1924 14.4047 22.8951 13.1074Z" fill="white"/>
<path fill-rule="evenodd" clip-rule="evenodd" d="M18.0039 0.989562H16.1417V0.984375C12.2745 0.986969 11.5328 1.01291 9.61864 1.10109C7.5956 1.19446 6.49849 1.53163 5.76708 1.81693C4.79706 2.19301 4.10715 2.64171 3.38093 3.36793C2.65471 4.09415 2.20342 4.78666 1.82734 5.75408C1.54204 6.48549 1.20487 7.5852 1.1115 9.60824C1.01294 11.7947 0.992188 12.4483 0.992188 17.9883C0.992188 23.5309 1.01294 24.1871 1.1115 26.3735C1.20227 28.3966 1.54204 29.4963 1.82475 30.2251C2.15861 31.1268 2.69038 31.9422 3.38093 32.6113C4.05042 33.3001 4.86579 33.8301 5.76708 34.1623C6.49849 34.4476 7.5956 34.7847 9.61864 34.8781C11.8051 34.9767 12.4639 35 18.0039 35C23.5439 35 24.2001 34.9767 26.3865 34.8781C28.4122 34.7847 29.5119 34.4476 30.2381 34.1623C31.2081 33.7862 31.898 33.3375 32.6243 32.6113C33.3142 31.9432 33.8452 31.1286 34.1778 30.2277C34.4606 29.4963 34.8003 28.3992 34.8911 26.3761C34.9922 24.1897 35.013 23.5309 35.013 17.9935C35.013 12.4561 34.9922 11.7999 34.8911 9.61343C34.8003 7.59038 34.4632 6.49068 34.1778 5.76187C33.8018 4.79184 33.3531 4.10193 32.6268 3.37571C31.9006 2.64949 31.2081 2.1982 30.2407 1.82212C29.5093 1.53941 28.4096 1.19965 26.3865 1.10887C24.2001 1.00772 23.5439 0.989562 18.0039 0.989562ZM28.1259 4.62345C28.428 4.49832 28.7518 4.43392 29.0787 4.43392C29.7391 4.43392 30.3724 4.69625 30.8394 5.16319C31.3063 5.63014 31.5686 6.26346 31.5686 6.92382C31.5686 7.58418 31.3063 8.21749 30.8394 8.68444C30.3724 9.15139 29.7391 9.41371 29.0787 9.41371C28.7518 9.41371 28.428 9.34931 28.1259 9.22418C27.8238 9.09905 27.5493 8.91565 27.3181 8.68444C27.0869 8.45323 26.9035 8.17875 26.7784 7.87666C26.6532 7.57457 26.5888 7.2508 26.5888 6.92382C26.5888 6.59684 26.6532 6.27306 26.7784 5.97097C26.9035 5.66889 27.0869 5.3944 27.3181 5.16319C27.5493 4.93199 27.8238 4.74858 28.1259 4.62345ZM13.8748 8.10688C15.1869 7.58127 16.5905 7.32194 18.0039 7.34399C20.8012 7.38763 23.4692 8.52951 25.432 10.5231C27.3948 12.5168 28.4949 15.2023 28.4949 18C28.4949 20.7977 27.3948 23.4832 25.432 25.4768C23.4692 27.4704 20.8012 28.6123 18.0039 28.656C16.5905 28.678 15.1869 28.4187 13.8748 27.8931C12.5626 27.3674 11.3681 26.586 10.3608 25.5944C9.35354 24.6027 8.5536 23.4205 8.00758 22.1167C7.46156 20.8129 7.18036 19.4135 7.18036 18C7.18036 16.5864 7.46156 15.187 8.00758 13.8832C8.5536 12.5794 9.35354 11.3973 10.3608 10.4056C11.3681 9.4139 12.5626 8.6325 13.8748 8.10688Z" fill="white"/>
</svg>
