<svg width="31" height="34" viewBox="0 0 31 34" fill="none" xmlns="http://www.w3.org/2000/svg">
<path d="M24.3566 5.14388C23.1559 3.69669 22.4971 1.87893 22.4977 8.8482e-06H20.914L16.7031 0.000100801V23.5405C16.6609 24.5652 16.2975 25.5514 15.6637 26.362C15.0298 27.1727 14.1569 27.7675 13.1661 28.0639C12.1754 28.3603 11.1161 28.3435 10.1355 28.0158C9.15486 27.6882 8.30153 27.0659 7.69416 26.2356C7.63953 26.2071 7.58552 26.1777 7.53216 26.1473C7.02292 25.4261 6.71781 24.5825 6.64919 23.704C6.57855 22.7989 6.76172 21.8921 7.17852 21.0837C7.59537 20.2752 8.22959 19.5967 9.01119 19.1231C9.79272 18.6495 10.6912 18.3992 11.6073 18.3999C12.1054 18.4063 12.5999 18.4832 13.076 18.628V12.7713C12.5898 12.699 12.099 12.661 11.6073 12.6576H11.3432C9.27289 12.7141 7.26088 13.3118 5.54443 14.4632C3.79612 15.6359 2.42996 17.2873 1.61245 19.2162C0.794938 21.145 0.561424 23.2679 0.940376 25.326C1.31933 27.384 2.29438 29.2884 3.74665 30.8068C3.86518 30.908 3.99187 31.0335 4.11856 31.1591C5.53212 32.4845 7.28538 33.3014 9.19121 33.7311C11.3242 34.212 13.554 34.0452 15.5899 33.2525C17.6259 32.4597 19.3738 31.0777 20.606 29.2866C21.8381 27.4954 22.4973 25.378 22.4978 23.2104V11.2922C24.9 12.9979 27.7822 13.9128 30.7374 13.9077V8.0506C30.1588 8.0489 29.582 8.04944 29.016 7.93048C27.3249 7.54636 25.7983 6.71893 24.6557 5.42199C24.5544 5.35706 24.4547 5.21303 24.3566 5.14388Z" fill="white"/>
</svg>
